<svg width="24" height="24" viewBox="0 0 24 24" fill="none" xmlns="http://www.w3.org/2000/svg">
<path d="M12.9677 3C12.6114 3 12.3226 3.27441 12.3226 3.6129C12.3226 3.9514 12.6114 4.22581 12.9677 4.22581C17.2435 4.22581 20.7097 7.51868 20.7097 11.5806C20.7097 11.9191 20.9985 12.1935 21.3548 12.1935C21.7112 12.1935 22 11.9191 22 11.5806C22 6.84169 17.9561 3 12.9677 3Z" fill="#E4E5EA"/>
<path d="M4.70912 4.99957C5.07483 4.821 5.71892 4.73049 6.0881 5.05724C6.54956 5.46566 7.26077 6.18162 7.74938 6.80628C8.238 7.43094 8.92205 8.38235 9.01978 8.59378C9.1175 8.8052 9.22608 9.5548 8.73747 10.0065C8.34658 10.3678 7.83625 10.6888 7.62994 10.8041C7.43812 10.9643 7.12396 11.4346 7.40192 12.0342C7.74938 12.7838 8.49859 14.2542 9.7907 15.3497C11.0828 16.4453 12.4509 17.0219 13.3087 17.2045C13.3633 17.2045 13.4333 17.2169 13.5145 17.2312C13.8052 17.2826 14.2383 17.359 14.6117 16.9835C14.9939 16.5991 15.3428 16.1954 15.4695 16.0417C15.6685 15.8367 16.2469 15.4881 16.9679 15.7342C17.8691 16.0417 18.9006 16.7144 19.3675 17.0315C19.741 17.2852 20.5728 17.8868 20.9419 18.1559C21.1663 18.3193 21.5413 18.8056 21.246 19.4437C20.8768 20.2413 19.3024 22 17.8908 22C17.3697 22 12.3315 20.645 7.87968 16.8201C5.03602 14.3769 2.58817 10.1378 2.16833 8.7091C2.00908 8.36954 1.82087 7.53281 2.34206 6.90238C2.86325 6.27195 3.4496 5.61462 4.70912 4.99957Z" fill="#E4E5EA"/>
<path d="M12.9677 7.90323C12.6114 7.90323 12.3226 8.17763 12.3226 8.51613C12.3226 8.85463 12.6114 9.12903 12.9677 9.12903C14.393 9.12903 15.5484 10.2267 15.5484 11.5806C15.5484 11.9191 15.8372 12.1935 16.1935 12.1935C16.5499 12.1935 16.8387 11.9191 16.8387 11.5806C16.8387 9.54966 15.1056 7.90323 12.9677 7.90323Z" fill="#E4E5EA"/>
<path d="M12.3226 6.06452C12.3226 5.72602 12.6114 5.45161 12.9677 5.45161C16.5309 5.45161 19.4194 8.19567 19.4194 11.5806C19.4194 11.9191 19.1305 12.1935 18.7742 12.1935C18.4179 12.1935 18.129 11.9191 18.129 11.5806C18.129 8.87267 15.8182 6.67742 12.9677 6.67742C12.6114 6.67742 12.3226 6.40301 12.3226 6.06452Z" fill="#E4E5EA"/>
</svg>
