<svg width="24" height="24" viewBox="0 0 24 24" fill="none" xmlns="http://www.w3.org/2000/svg">
<path fill-rule="evenodd" clip-rule="evenodd" d="M18.8025 5.19097C17.9169 4.30376 16.8632 3.60028 15.7025 3.12127C14.5417 2.64226 13.297 2.39724 12.0405 2.40042C6.7714 2.40042 2.48202 6.66838 2.47989 11.9146C2.47989 13.5912 2.91969 15.2276 3.75563 16.6711L2.40002 21.6004L7.46783 20.2767C8.86965 21.0361 10.4402 21.4344 12.0362 21.4351H12.0405C17.3085 21.4351 21.5979 17.1671 21.6 11.9209C21.6036 10.6708 21.3582 9.43242 20.8781 8.27727C20.3979 7.12212 19.6925 6.07314 18.8025 5.19097ZM12.0405 19.8294H12.0373C10.6141 19.8296 9.21706 19.4485 7.99282 18.7261L7.70317 18.5544L4.69593 19.3398L5.49779 16.422L5.3093 16.1232C4.5136 14.8624 4.09238 13.4034 4.09426 11.9146C4.09639 7.5544 7.66058 4.00713 12.0437 4.00713C13.0875 4.00482 14.1215 4.20859 15.0857 4.60663C16.0499 5.00467 16.9252 5.58908 17.661 6.32605C18.4007 7.0595 18.9869 7.93159 19.386 8.89191C19.785 9.85223 19.9888 10.8817 19.9856 11.9209C19.9835 16.2811 16.4193 19.8294 12.0405 19.8294ZM16.3991 13.906C16.1595 13.7862 14.986 13.2118 14.7666 13.1323C14.5483 13.0528 14.3896 13.0136 14.2299 13.251C14.0701 13.4884 13.6122 14.0236 13.4727 14.1826C13.3332 14.3416 13.1937 14.3607 12.9552 14.242C12.7167 14.1233 11.9468 13.8721 11.0341 13.0624C10.3239 12.4318 9.84467 11.6538 9.70517 11.4154C9.56567 11.1769 9.69026 11.0487 9.81059 10.93C9.91814 10.824 10.0491 10.6523 10.1684 10.5135C10.2877 10.3746 10.3271 10.2761 10.4069 10.1171C10.4868 9.9581 10.4474 9.81927 10.3867 9.70056C10.3271 9.5808 9.84893 8.41075 9.64979 7.93488C9.45705 7.47385 9.26004 7.53532 9.11309 7.52896C8.96089 7.52277 8.80857 7.51994 8.65625 7.52048C8.53513 7.52356 8.41594 7.5515 8.30618 7.60257C8.19641 7.65363 8.09843 7.72672 8.01838 7.81724C7.79901 8.0557 7.18244 8.63013 7.18244 9.80019C7.18244 10.9702 8.03861 12.1011 8.15788 12.2601C8.27715 12.419 9.84254 14.8196 12.2385 15.8497C12.8093 16.0945 13.2544 16.2408 13.6005 16.351C14.1724 16.5323 14.6931 16.5058 15.1052 16.4454C15.5642 16.3775 16.5183 15.8709 16.7175 15.3156C16.9166 14.7602 16.9166 14.2844 16.857 14.1847C16.7973 14.0851 16.6365 14.0247 16.3991 13.906Z" fill="#E4E5EA"/>
</svg>

